<mxfile host="app.diagrams.net" modified="2022-09-05T19:28:09.541Z" agent="5.0 (X11)" etag="JzkS8dUT96aW-CcRwwi-" version="20.2.8" type="github">
  <diagram id="-kUhCNm7BmuETYMNNEoT" name="template">
    <mxGraphModel dx="865" dy="449" grid="1" gridSize="10" guides="1" tooltips="1" connect="1" arrows="1" fold="1" page="1" pageScale="1" pageWidth="850" pageHeight="1100" math="1" shadow="0">
      <root>
        <mxCell id="0" />
        <mxCell id="1" parent="0" />
        <mxCell id="AD0mFGzPbg3MalVjxy_X-1" value="$$R = 1 k\Omega$$" style="pointerEvents=1;verticalLabelPosition=bottom;shadow=0;dashed=0;align=center;html=1;verticalAlign=top;shape=mxgraph.electrical.resistors.resistor_2;" parent="1" vertex="1">
          <mxGeometry x="170" y="130" width="100" height="20" as="geometry" />
        </mxCell>
        <mxCell id="AD0mFGzPbg3MalVjxy_X-2" value="$$ C = 1\mu F$$" style="pointerEvents=1;verticalLabelPosition=bottom;shadow=0;dashed=0;align=center;html=1;verticalAlign=top;shape=mxgraph.electrical.capacitors.capacitor_1;" parent="1" vertex="1">
          <mxGeometry x="160" y="220" width="100" height="60" as="geometry" />
        </mxCell>
        <mxCell id="AD0mFGzPbg3MalVjxy_X-3" value="&lt;div&gt;$$ {W\over L} = {150\ nm \over 230\ nm} $$&lt;/div&gt;" style="verticalLabelPosition=middle;shadow=0;dashed=0;align=left;html=1;verticalAlign=middle;shape=mxgraph.electrical.transistors.nmos;pointerEvents=1;labelPosition=right;" parent="1" vertex="1">
          <mxGeometry x="330" y="150" width="60" height="100" as="geometry" />
        </mxCell>
        <mxCell id="AD0mFGzPbg3MalVjxy_X-5" value="&lt;div&gt;$$ {W\over L} = {150\ nm \over 230\ nm} $$&lt;/div&gt;" style="verticalLabelPosition=middle;shadow=0;dashed=0;align=left;html=1;verticalAlign=middle;shape=mxgraph.electrical.transistors.pmos;pointerEvents=1;labelPosition=right;" parent="1" vertex="1">
          <mxGeometry x="550" y="150" width="60" height="100" as="geometry" />
        </mxCell>
        <mxCell id="AD0mFGzPbg3MalVjxy_X-6" value="$$V_{noise} = 12\ mV$$" style="pointerEvents=1;verticalLabelPosition=bottom;shadow=0;dashed=0;align=center;html=1;verticalAlign=top;shape=mxgraph.electrical.signal_sources.source;aspect=fixed;points=[[0.5,0,0],[1,0.5,0],[0.5,1,0],[0,0.5,0]];elSignalType=ac;" parent="1" vertex="1">
          <mxGeometry x="550" y="400" width="30" height="30" as="geometry" />
        </mxCell>
        <mxCell id="AD0mFGzPbg3MalVjxy_X-7" value="$$I_{1} = 12\ \mu A$$" style="pointerEvents=1;verticalLabelPosition=bottom;shadow=0;dashed=0;align=center;html=1;verticalAlign=top;shape=mxgraph.electrical.signal_sources.source;aspect=fixed;points=[[0.5,0,0],[1,0.5,0],[0.5,1,0],[0,0.5,0]];elSignalType=dc1;direction=south;" parent="1" vertex="1">
          <mxGeometry x="440" y="400" width="30" height="30" as="geometry" />
        </mxCell>
        <mxCell id="AD0mFGzPbg3MalVjxy_X-8" value="&lt;div&gt;&lt;font style=&quot;font-size: 12px;&quot;&gt;$$V_{dd}$$&lt;/font&gt;&lt;/div&gt;" style="verticalLabelPosition=top;verticalAlign=bottom;shape=mxgraph.electrical.signal_sources.vdd;shadow=0;dashed=0;align=center;strokeWidth=1;fontSize=24;html=1;flipV=1;" parent="1" vertex="1">
          <mxGeometry x="210" y="390" width="30" height="20" as="geometry" />
        </mxCell>
        <mxCell id="AD0mFGzPbg3MalVjxy_X-9" value="&lt;font style=&quot;font-size: 12px;&quot;&gt;$$V_{ss}$$&lt;/font&gt;" style="pointerEvents=1;verticalLabelPosition=bottom;shadow=0;dashed=0;align=center;html=1;verticalAlign=top;shape=mxgraph.electrical.signal_sources.vss2;fontSize=24;flipV=1;" parent="1" vertex="1">
          <mxGeometry x="580" y="300" width="60" height="40" as="geometry" />
        </mxCell>
        <mxCell id="AD0mFGzPbg3MalVjxy_X-11" value="$$ M_1$$" style="verticalLabelPosition=middle;shadow=0;dashed=0;align=left;html=1;verticalAlign=middle;shape=mxgraph.electrical.transistors.nmos;pointerEvents=1;labelPosition=right;" parent="1" vertex="1">
          <mxGeometry x="180" y="430" width="60" height="100" as="geometry" />
        </mxCell>
        <mxCell id="AD0mFGzPbg3MalVjxy_X-12" value="$$M_2$$" style="verticalLabelPosition=middle;shadow=0;dashed=0;align=left;html=1;verticalAlign=middle;shape=mxgraph.electrical.transistors.pmos;pointerEvents=1;labelPosition=right;" parent="1" vertex="1">
          <mxGeometry x="340" y="430" width="60" height="100" as="geometry" />
        </mxCell>
        <mxCell id="AD0mFGzPbg3MalVjxy_X-13" value="M1" style="verticalLabelPosition=middle;shadow=0;dashed=0;align=left;html=1;verticalAlign=middle;shape=mxgraph.electrical.transistors.nmos;pointerEvents=1;labelPosition=right;" parent="1" vertex="1">
          <mxGeometry x="180" y="550" width="60" height="100" as="geometry" />
        </mxCell>
        <mxCell id="AD0mFGzPbg3MalVjxy_X-14" value="M2" style="verticalLabelPosition=middle;shadow=0;dashed=0;align=left;html=1;verticalAlign=middle;shape=mxgraph.electrical.transistors.pmos;pointerEvents=1;labelPosition=right;" parent="1" vertex="1">
          <mxGeometry x="340" y="550" width="60" height="100" as="geometry" />
        </mxCell>
        <mxCell id="AD0mFGzPbg3MalVjxy_X-15" value="" style="pointerEvents=1;verticalLabelPosition=bottom;shadow=0;dashed=0;align=center;html=1;verticalAlign=top;shape=mxgraph.electrical.signal_sources.signal_ground;" parent="1" vertex="1">
          <mxGeometry x="130" y="460" width="10" height="10" as="geometry" />
        </mxCell>
        <mxCell id="P5SnMlmyEq64qB_8NNbI-5" value="$$ M_1$$" style="verticalLabelPosition=middle;shadow=0;dashed=0;align=right;html=1;verticalAlign=middle;shape=mxgraph.electrical.transistors.nmos;pointerEvents=1;labelPosition=left;flipH=1;" vertex="1" parent="1">
          <mxGeometry x="520" y="510" width="60" height="100" as="geometry" />
        </mxCell>
        <mxCell id="P5SnMlmyEq64qB_8NNbI-6" value="$$M_2$$" style="verticalLabelPosition=middle;shadow=0;dashed=0;align=right;html=1;verticalAlign=middle;shape=mxgraph.electrical.transistors.pmos;pointerEvents=1;labelPosition=left;flipH=1;" vertex="1" parent="1">
          <mxGeometry x="660" y="510" width="60" height="100" as="geometry" />
        </mxCell>
        <mxCell id="P5SnMlmyEq64qB_8NNbI-8" value="$$M_2$$" style="verticalLabelPosition=middle;shadow=0;dashed=0;align=right;html=1;verticalAlign=middle;shape=mxgraph.electrical.transistors.nmos;pointerEvents=1;labelPosition=left;flipH=1;" vertex="1" parent="1">
          <mxGeometry x="305" y="750" width="60" height="100" as="geometry" />
        </mxCell>
        <mxCell id="P5SnMlmyEq64qB_8NNbI-9" style="edgeStyle=orthogonalEdgeStyle;rounded=0;orthogonalLoop=1;jettySize=auto;html=1;entryX=1;entryY=0;entryDx=0;entryDy=0;entryPerimeter=0;endArrow=none;endFill=0;" edge="1" parent="1" target="P5SnMlmyEq64qB_8NNbI-8">
          <mxGeometry relative="1" as="geometry">
            <mxPoint x="305" y="730" as="sourcePoint" />
          </mxGeometry>
        </mxCell>
        <mxCell id="P5SnMlmyEq64qB_8NNbI-10" value="" style="endArrow=oval;html=1;rounded=0;exitX=1;exitY=0;exitDx=0;exitDy=0;exitPerimeter=0;entryX=0;entryY=0.5;entryDx=0;entryDy=0;entryPerimeter=0;edgeStyle=orthogonalEdgeStyle;startArrow=oval;startFill=1;endFill=1;" edge="1" parent="1" source="P5SnMlmyEq64qB_8NNbI-8" target="P5SnMlmyEq64qB_8NNbI-8">
          <mxGeometry width="50" height="50" relative="1" as="geometry">
            <mxPoint x="375" y="770" as="sourcePoint" />
            <mxPoint x="380" y="750" as="targetPoint" />
            <Array as="points">
              <mxPoint x="365" y="753" />
            </Array>
          </mxGeometry>
        </mxCell>
        <mxCell id="P5SnMlmyEq64qB_8NNbI-17" style="edgeStyle=orthogonalEdgeStyle;rounded=0;orthogonalLoop=1;jettySize=auto;html=1;exitX=1;exitY=1;exitDx=0;exitDy=0;exitPerimeter=0;fontSize=12;startArrow=none;startFill=0;endArrow=none;endFill=0;" edge="1" parent="1" source="P5SnMlmyEq64qB_8NNbI-14">
          <mxGeometry relative="1" as="geometry">
            <mxPoint x="509.80952380952374" y="880" as="targetPoint" />
          </mxGeometry>
        </mxCell>
        <mxCell id="P5SnMlmyEq64qB_8NNbI-14" value="$$M_2$$" style="verticalLabelPosition=middle;shadow=0;dashed=0;align=right;html=1;verticalAlign=middle;shape=mxgraph.electrical.transistors.pmos;pointerEvents=1;labelPosition=left;flipH=1;" vertex="1" parent="1">
          <mxGeometry x="510" y="740" width="60" height="100" as="geometry" />
        </mxCell>
        <mxCell id="P5SnMlmyEq64qB_8NNbI-15" style="edgeStyle=orthogonalEdgeStyle;rounded=0;orthogonalLoop=1;jettySize=auto;html=1;entryX=0;entryY=0.5;entryDx=0;entryDy=0;entryPerimeter=0;fontSize=12;endArrow=oval;endFill=1;startArrow=oval;startFill=1;exitX=1;exitY=1;exitDx=0;exitDy=0;exitPerimeter=0;" edge="1" parent="1" source="P5SnMlmyEq64qB_8NNbI-14" target="P5SnMlmyEq64qB_8NNbI-14">
          <mxGeometry relative="1" as="geometry">
            <mxPoint x="610" y="880" as="sourcePoint" />
            <Array as="points">
              <mxPoint x="570" y="837" />
            </Array>
          </mxGeometry>
        </mxCell>
      </root>
    </mxGraphModel>
  </diagram>
</mxfile>
